<svg width="61" height="60" viewBox="0 0 61 60" fill="none" xmlns="http://www.w3.org/2000/svg">
<g clip-path="url(#clip0_1715_40)">
<path fill-rule="evenodd" clip-rule="evenodd" d="M57.5201 34.49C59.0056 33.0881 60.5166 31.6621 60.5166 29.9999C60.5166 28.3774 59.0431 27.0249 57.5684 25.6713C56.3505 24.5533 55.1317 23.4346 54.7416 22.1624C54.3578 20.9108 54.6572 19.3102 54.9557 17.7142C55.328 15.7237 55.699 13.7403 54.7416 12.4499C53.7891 11.1661 51.7848 10.8999 49.7892 10.6348C48.1706 10.4198 46.5578 10.2056 45.5166 9.44989C44.4801 8.69757 43.764 7.20735 43.0495 5.72026C42.1613 3.87173 41.2754 2.02803 39.7791 1.61239C38.3226 1.20782 36.6152 2.11267 34.8805 3.03199C33.3994 3.81692 31.8983 4.61239 30.5166 4.61239C29.1781 4.61239 27.7499 3.78374 26.3288 2.95915C24.5649 1.93563 22.8117 0.918381 21.2541 1.49989C19.7104 2.07623 18.8445 3.90663 17.9867 5.71984C17.2818 7.21005 16.5824 8.68864 15.5166 9.44989C14.4468 10.214 12.7774 10.4476 11.1174 10.6798C9.11149 10.9605 7.11947 11.2392 6.2166 12.4499C5.31027 13.6652 5.67117 15.6725 6.03144 17.6764C6.32705 19.3206 6.62224 20.9624 6.2166 22.1624C5.82156 23.3311 4.67514 24.413 3.51306 25.5097C2.02763 26.9117 0.516602 28.3377 0.516602 29.9999C0.516602 31.6224 1.99008 32.9749 3.46476 34.3285C4.68271 35.4465 5.90147 36.5652 6.2916 37.8374C6.67541 39.089 6.37604 40.6895 6.07752 42.2856C5.70521 44.2761 5.33423 46.2595 6.2916 47.5499C7.24409 48.8337 9.24843 49.0999 11.244 49.365C12.8626 49.58 14.4754 49.7942 15.5166 50.5499C16.5519 51.3013 17.2749 52.7888 17.9968 54.2741C18.8961 56.1244 19.7938 57.9714 21.2916 58.3874C22.7481 58.792 24.4555 57.8871 26.1902 56.9678C27.6714 56.1829 29.1724 55.3874 30.5541 55.3874C31.9018 55.3874 33.3403 56.182 34.771 56.9723C36.5251 57.9412 38.2675 58.9037 39.8166 58.3874C41.3794 57.8664 42.2707 56.0255 43.1531 54.2028C43.8587 52.7454 44.5586 51.2997 45.5916 50.5499C46.6452 49.7852 48.2994 49.5518 49.9472 49.3194C51.9355 49.0389 53.9143 48.7598 54.8166 47.5499C55.7229 46.3346 55.362 44.3273 55.0018 42.3234C54.7062 40.6792 54.411 39.0374 54.8166 37.8374C55.2116 36.6687 56.3581 35.5868 57.5201 34.49ZM27.8336 32.1666V41.6666H19.9169V28.9999H15.1669L31.0002 14.7499L46.8336 28.9999H42.0836V41.6666H34.1669V32.1666H27.8336Z" fill="url(#paint0_linear_1715_40)"/>
<path d="M27.8336 41.6666V32.1666H34.1669V41.6666H42.0836V28.9999H46.8336L31.0002 14.7499L15.1669 28.9999H19.9169V41.6666H27.8336Z" fill="white"/>
</g>
<defs>
<linearGradient id="paint0_linear_1715_40" x1="61" y1="58.9999" x2="0.999999" y2="0.99994" gradientUnits="userSpaceOnUse">
<stop stop-color="#E090A9"/>
<stop offset="1" stop-color="#C37CDC"/>
</linearGradient>
<clipPath id="clip0_1715_40">
<rect width="60" height="60" fill="white" transform="translate(0.516602)"/>
</clipPath>
</defs>
</svg>
