<svg width="61" height="60" viewBox="0 0 61 60" fill="none" xmlns="http://www.w3.org/2000/svg">
<g clip-path="url(#clip0_1715_41)">
<path fill-rule="evenodd" clip-rule="evenodd" d="M57.5201 34.4902C59.0056 33.0882 60.5166 31.6622 60.5166 30C60.5166 28.3775 59.0431 27.025 57.5684 25.6714C56.3505 24.5534 55.1317 23.4347 54.7416 22.1625C54.3578 20.911 54.6572 19.3104 54.9557 17.7144C55.328 15.7238 55.699 13.7404 54.7416 12.45C53.7891 11.1662 51.7848 10.9 49.7892 10.6349C48.1706 10.42 46.5578 10.2057 45.5166 9.45001C44.4801 8.69769 43.764 7.20748 43.0495 5.72038C42.1613 3.87185 41.2754 2.02815 39.7791 1.61251C38.3226 1.20794 36.6152 2.11279 34.8805 3.03211C33.3994 3.81704 31.8983 4.61251 30.5166 4.61251C29.1781 4.61251 27.7499 3.78386 26.3288 2.95927C24.5649 1.93575 22.8117 0.918503 21.2541 1.50001C19.7104 2.07635 18.8445 3.90675 17.9867 5.71996C17.2818 7.21017 16.5824 8.68876 15.5166 9.45001C14.4468 10.2141 12.7774 10.4477 11.1174 10.68C9.11149 10.9606 7.11947 11.2393 6.2166 12.45C5.31027 13.6653 5.67117 15.6727 6.03144 17.6765C6.32705 19.3207 6.62224 20.9625 6.2166 22.1625C5.82156 23.3312 4.67514 24.4131 3.51306 25.5099C2.02763 26.9118 0.516602 28.3379 0.516602 30C0.516602 31.6225 1.99008 32.975 3.46476 34.3286C4.6827 35.4466 5.90147 36.5653 6.2916 37.8375C6.67541 39.0891 6.37604 40.6897 6.07752 42.2857C5.70521 44.2762 5.33423 46.2596 6.2916 47.55C7.24409 48.8338 9.24843 49.1 11.244 49.3651C12.8626 49.5801 14.4754 49.7943 15.5166 50.55C16.5519 51.3014 17.2749 52.7889 17.9968 54.2742C18.8961 56.1245 19.7938 57.9715 21.2916 58.3875C22.7481 58.7921 24.4555 57.8872 26.1902 56.9679C27.6714 56.183 29.1724 55.3875 30.5541 55.3875C31.9018 55.3875 33.3403 56.1821 34.771 56.9724C36.5251 57.9414 38.2675 58.9039 39.8166 58.3875C41.3794 57.8666 42.2707 56.0256 43.1531 54.2029C43.8587 52.7455 44.5586 51.2998 45.5916 50.55C46.6452 49.7853 48.2994 49.552 49.9472 49.3195C51.9355 49.039 53.9143 48.7599 54.8166 47.55C55.7229 46.3347 55.362 44.3274 55.0018 42.3235C54.7062 40.6794 54.411 39.0375 54.8166 37.8375C55.2116 36.6689 56.3581 35.5869 57.5201 34.4902ZM27.8336 32.1667V41.6667H19.9169V29.0001H15.1669L31.0002 14.7501L46.8336 29.0001H42.0836V41.6667H34.1669V32.1667H27.8336Z" fill="white"/>
</g>
<defs>
<clipPath id="clip0_1715_41">
<rect width="60" height="60" fill="white" transform="translate(0.516602)"/>
</clipPath>
</defs>
</svg>
