<svg width="61" height="60" viewBox="0 0 61 60" fill="none" xmlns="http://www.w3.org/2000/svg">
<g clip-path="url(#clip0_1715_38)">
<path d="M19.6666 29.9997C19.6666 35.7797 23.9874 40.5397 29.5832 41.2339V38.4997C28.0249 38.4997 26.7499 37.2247 26.7499 35.6664V34.2497L19.9641 27.4639C19.7799 28.2855 19.6666 29.1214 19.6666 29.9997Z" fill="white"/>
<path d="M36.6666 35.6664C37.9416 35.6664 38.9899 36.488 39.3582 37.6355C41.1999 35.6239 42.3332 32.9464 42.3332 29.9997C42.3332 25.2539 39.4007 21.188 35.2499 19.5022V20.083C35.2499 21.6414 33.9749 22.9164 32.4166 22.9164H29.5832V25.7497C29.5832 26.5289 28.9457 27.1664 28.1666 27.1664H25.3332V29.9997H33.8332C34.6124 29.9997 35.2499 30.6372 35.2499 31.4164V35.6664H36.6666Z" fill="white"/>
<path fill-rule="evenodd" clip-rule="evenodd" d="M60.5166 29.9999C60.5166 31.6621 59.0056 33.0881 57.5201 34.49C56.3581 35.5868 55.2116 36.6687 54.8166 37.8374C54.411 39.0374 54.7061 40.6792 55.0018 42.3234C55.362 44.3272 55.7229 46.3346 54.8166 47.5499C53.9143 48.7598 51.9355 49.0389 49.9472 49.3194C48.2994 49.5518 46.6452 49.7852 45.5916 50.5499C44.5586 51.2997 43.8587 52.7454 43.1531 54.2028C42.2707 56.0255 41.3794 57.8664 39.8166 58.3874C38.2675 58.9037 36.5251 57.9412 34.771 56.9723C33.3403 56.182 31.9018 55.3874 30.5541 55.3874C29.1724 55.3874 27.6714 56.1829 26.1902 56.9678C24.4555 57.8871 22.7481 58.792 21.2916 58.3874C19.7938 57.9714 18.8961 56.1244 17.9968 54.2741C17.2749 52.7888 16.5519 51.3013 15.5166 50.5499C14.4754 49.7942 12.8626 49.58 11.244 49.365C9.24843 49.0999 7.24409 48.8337 6.2916 47.5499C5.33423 46.2595 5.70521 44.2761 6.07752 42.2856C6.37604 40.6895 6.67541 39.089 6.2916 37.8374C5.90147 36.5652 4.6827 35.4465 3.46476 34.3285C1.99008 32.9749 0.516602 31.6224 0.516602 29.9999C0.516602 28.3377 2.02763 26.9117 3.51306 25.5097C4.67514 24.413 5.82156 23.3311 6.2166 22.1624C6.62224 20.9624 6.32705 19.3206 6.03144 17.6764C5.67117 15.6725 5.31027 13.6652 6.2166 12.4499C7.11947 11.2392 9.11149 10.9605 11.1174 10.6798C12.7774 10.4476 14.4468 10.214 15.5166 9.44989C16.5824 8.68864 17.2818 7.21005 17.9867 5.71984C18.8445 3.90663 19.7104 2.07623 21.2541 1.49989C22.8117 0.918381 24.5649 1.93563 26.3288 2.95915C27.7499 3.78374 29.1781 4.61239 30.5166 4.61239C31.8983 4.61239 33.3994 3.81692 34.8805 3.03199C36.6152 2.11267 38.3226 1.20782 39.7791 1.61239C41.2754 2.02803 42.1613 3.87173 43.0495 5.72026C43.764 7.20735 44.4801 8.69757 45.5166 9.44989C46.5578 10.2056 48.1706 10.4198 49.7892 10.6348C51.7848 10.8999 53.7891 11.1661 54.7416 12.4499C55.699 13.7403 55.328 15.7237 54.9557 17.7142C54.6572 19.3102 54.3578 20.9108 54.7416 22.1624C55.1317 23.4346 56.3505 24.5533 57.5684 25.6713C59.0431 27.0249 60.5166 28.3774 60.5166 29.9999ZM16.8333 29.9997C16.8333 22.1797 23.1799 15.833 30.9999 15.833C38.8199 15.833 45.1666 22.1797 45.1666 29.9997C45.1666 37.8197 38.8199 44.1664 30.9999 44.1664C23.1799 44.1664 16.8333 37.8197 16.8333 29.9997Z" fill="white"/>
</g>
<defs>
<clipPath id="clip0_1715_38">
<rect width="60" height="60" fill="white" transform="translate(0.516602)"/>
</clipPath>
</defs>
</svg>
