<svg width="61" height="60" viewBox="0 0 61 60" fill="none" xmlns="http://www.w3.org/2000/svg">
<g clip-path="url(#clip0_502_7213)">
<path fill-rule="evenodd" clip-rule="evenodd" d="M60.5041 30.1124C60.5041 33.0707 55.7051 35.2801 54.8053 37.9388C53.9055 40.5975 56.4549 45.4282 54.8053 47.6375C53.1556 49.8469 47.9067 48.9482 45.5822 50.6333C43.2577 52.3184 42.6203 57.5235 39.8084 58.4596C36.9965 59.3958 33.5472 55.4639 30.5478 55.4639C27.5485 55.4639 23.9867 59.2086 21.2873 58.4596C18.5878 57.7107 17.838 52.3184 15.5135 50.6333C13.189 48.9482 8.01504 49.9592 6.2904 47.6375C4.56576 45.3158 7.15272 40.7473 6.2904 37.9388C5.42808 35.1303 0.516602 33.0707 0.516602 30.1124C0.516602 27.1541 5.3156 24.9448 6.21541 22.286C7.11523 19.6273 4.56576 14.7967 6.21541 12.5873C7.86507 10.378 13.1515 11.2767 15.5135 9.59157C17.8755 7.90647 18.4379 2.70136 21.2498 1.65285C24.0617 0.604339 27.511 4.76093 30.5104 4.76093C33.5097 4.76093 37.0715 1.01625 39.7709 1.76519C42.4704 2.51413 43.1827 7.90647 45.5072 9.59157C47.8317 11.2767 53.0057 10.2656 54.7303 12.5873C56.4549 14.909 53.868 19.4775 54.7303 22.286C55.5926 25.0945 60.5041 27.1541 60.5041 30.1124Z" fill="#5865F2"/>
<path d="M50.3593 29.9369C50.3593 31.4312 49.6192 32.9257 48.5089 33.6729L37.0373 41.1448C34.8169 42.6391 32.5965 43.3864 30.0061 43.3864C28.8959 43.3864 28.1559 43.3864 27.0456 43.0128C24.0853 42.2657 21.8649 40.7712 20.0146 38.5297C19.6445 37.7824 20.0146 37.0352 20.3847 36.6617L25.5654 33.2993C25.9355 32.9257 26.6756 32.9257 27.0456 33.2993C27.7858 33.6729 28.5259 34.0465 28.8959 34.42C30.3762 34.42 31.4864 34.42 32.5965 33.6729L35.1869 32.1784L42.588 26.9481L43.6983 26.2009C45.5485 25.0801 48.5089 25.4538 49.6192 27.3217C50.3593 28.4426 50.3593 29.1897 50.3593 29.9369Z" fill="white"/>
<path d="M41.1239 23.1573L35.9052 26.5397C35.1597 26.9155 34.7869 26.9155 34.0413 26.5397C33.6686 26.1639 32.9231 25.7881 32.5503 25.4123C31.0592 25.0364 29.941 25.4123 28.8226 26.1639L26.9588 27.2914L17.6397 33.6805C15.4031 34.8079 12.7937 34.4321 11.6754 32.1771C10.1843 30.2979 10.9299 27.6672 12.7937 26.1639L23.9767 18.6474C26.9588 16.7682 30.6865 16.0166 34.0413 16.7682C37.0235 17.5199 39.2601 19.0232 41.1239 21.2782C41.8695 22.0299 41.4967 22.7815 41.1239 23.1573Z" fill="white"/>
</g>
<defs>
<clipPath id="clip0_502_7213">
<rect width="60" height="60" fill="white" transform="translate(0.516602)"/>
</clipPath>
</defs>
</svg>
