<svg width="61" height="60" viewBox="0 0 61 60" fill="none" xmlns="http://www.w3.org/2000/svg">
<g clip-path="url(#clip0_502_7217)">
<path fill-rule="evenodd" clip-rule="evenodd" d="M60.5165 30.5549C60.5165 33.5138 55.7165 35.7236 54.8165 38.3829C53.9165 41.0421 56.4665 45.8738 54.8165 48.0836C53.1665 50.2934 47.9166 49.3945 45.5916 51.08C43.2666 52.7654 42.6291 57.9716 39.8166 58.908C37.0041 59.8443 33.5541 55.9116 30.5541 55.9116C27.5541 55.9116 23.9916 59.6571 21.2916 58.908C18.5916 58.1589 17.8416 52.7654 15.5166 51.08C13.1916 49.3945 8.01659 50.4058 6.2916 48.0836C4.5666 45.7614 7.15409 41.192 6.2916 38.3829C5.4291 35.5738 0.516602 33.5138 0.516602 30.5549C0.516602 27.596 5.3166 25.3861 6.2166 22.7269C7.11659 20.0676 4.5666 15.236 6.2166 13.0261C7.86659 10.8163 13.1541 11.7152 15.5166 10.0298C17.8791 8.34432 18.4416 3.13814 21.2541 2.08941C24.0666 1.04068 27.5166 5.19814 30.5166 5.19814C33.5166 5.19814 37.0791 1.45268 39.7791 2.20177C42.4791 2.95086 43.1916 8.34432 45.5166 10.0298C47.8416 11.7152 53.0165 10.704 54.7415 13.0261C56.4665 15.3483 53.879 19.9178 54.7415 22.7269C55.604 25.536 60.5165 27.596 60.5165 30.5549Z" fill="#3BA55C"/>
<path d="M28.8355 44.2724L16.1792 34.7013L19.9017 29.5967L27.3465 35.3394L40.8961 17.3607L45.9586 21.1141L28.8355 44.2724Z" fill="white"/>
</g>
<defs>
<clipPath id="clip0_502_7217">
<rect width="60" height="60" fill="white" transform="translate(0.516602)"/>
</clipPath>
</defs>
</svg>
