<svg xmlns:xlink="http://www.w3.org/1999/xlink" xmlns="http://www.w3.org/2000/svg" width="140" height="140" viewBox="0 0 220 220" fill="none">
<path d="M180.722 58.0798C175.506 46.1379 169.055 36.6667 146.132 36.6667H36.8694C29.5944 36.6667 18.7723 41.3596 17.8068 58.0798C15.3012 101.469 16.2781 126.993 20.2049 146.583C24.2831 166.929 44.1677 178.981 64.9184 178.981H187.564C196.322 178.981 205.018 174.782 208.004 166.549C216.319 143.631 206.034 117.876 180.722 58.0798Z" fill="url(#paint0_linear_22_1025)"/>
<path d="M90.6762 144.86H191.447C198.128 144.86 200.541 141.52 197.386 130.756C189.471 104.369 179.863 78.5194 168.62 53.369C160.826 36.6667 155.259 36.6667 139.67 36.6667H35.6316C58.7794 36.6667 59.5827 36.6667 70.2622 130.756C73.2315 144.86 77.4999 144.86 90.6762 144.86Z" fill="url(#paint1_linear_22_1025)"/>
<path d="M157.91 86.3648C162.376 84.8532 163.891 77.4104 161.295 69.7408C158.699 62.0713 152.975 57.0792 148.509 58.5908C144.043 60.1024 142.527 67.5452 145.123 75.2148C147.719 82.8843 153.444 87.8764 157.91 86.3648Z" fill="#57F287"/>
<path d="M91.6027 86.6163C96.1379 84.9924 97.5738 77.4181 94.8098 69.6985C92.0458 61.9789 86.1286 57.0373 81.5933 58.6612C77.058 60.285 75.6221 67.8594 78.3862 75.579C81.1502 83.2985 87.0674 88.2401 91.6027 86.6163Z" fill="#57F287"/>
<path d="M152.846 102.364C153.402 117.024 146.165 127.603 133.916 127.603C121.668 127.603 107.935 117.024 99.7692 102.364H152.846Z" fill="#57F287"/>
<defs>
<linearGradient id="paint0_linear_22_1025" x1="73.3332" y1="220" x2="145.088" y2="55.3344" gradientUnits="userSpaceOnUse">
<stop offset="0.180208" stop-color="#3442D9"/>
<stop offset="0.747916" stop-color="#737FFF"/>
</linearGradient>
<linearGradient id="paint1_linear_22_1025" x1="103.296" y1="47.3376" x2="125.974" y2="142.151" gradientUnits="userSpaceOnUse">
<stop/>
<stop offset="0.11" stop-color="#050409"/>
<stop offset="0.7" stop-color="#1B1934"/>
<stop offset="1" stop-color="#242145"/>
</linearGradient>
</defs>
</svg>